<svg xmlns="http://www.w3.org/2000/svg" id="Layer_1" viewBox="0 0 321.2 321.2"><g id="Layer_1-2"><path d="M160.6,0C71.9,0,0,71.9,0,160.6s71.9,160.6,160.6,160.6,160.6-71.9,160.6-160.6S249.3,0,160.6,0ZM100.4,248.4c-27.9-19.2-46.3-51.5-46.3-87.8,0-58.7,47.8-106.5,106.5-106.5s7.3.2,11,.5l-10.4,12.3h-.6c-51.7,0-93.7,42-93.7,93.7s.4,10.6,1.4,15.7c.7,4.1,1.6,8,2.8,11.9,5.9,19,17.6,35.5,33.2,47.2l-3.8,12.9-.1.1h0ZM94.8,171.4L214.2,30.8l-34,117.3,46.3-.9-120.9,143.3,35.2-118.7-46.1-.4h.1ZM160.6,267.2c-4.3,0-8.4-.3-12.5-.7l10.2-12.1h2.3c51.7,0,93.7-42,93.7-93.7s-.6-12.2-1.7-18c-.9-4.4-2.1-8.8-3.6-12.9-6.3-17.9-17.9-33.5-33-44.6l3.7-12.9c20.1,13.5,35.4,33.7,42.6,57.2.2.3.3.7.3,1.2,2.8,9.5,4.3,19.7,4.3,30.1,0,58.7-47.8,106.5-106.5,106.5l.2-.1h0Z"></path></g></svg>