<svg xmlns="http://www.w3.org/2000/svg" xmlns:xlink="http://www.w3.org/1999/xlink" id="Layer_2" viewBox="0 0 25.89 25.89"><defs><style class="native-dark-class-modified">      .cls-1 {        fill: none;      }      .cls-2 {        fill: #f2f2f2;      }      .cls-3 {        clip-path: url(#clippath);      }    </style><clipPath id="clippath"><rect class="cls-1" width="25.89" height="25.89"></rect></clipPath></defs><g id="Layer_1-2" data-name="Layer_1"><g class="cls-3"><path d="M25.89,12.95c0,7.15-5.8,12.95-12.95,12.95S0,20.1,0,12.95,5.8,0,12.95,0s12.95,5.8,12.95,12.95"></path><path class="cls-2" d="M4.95,14.04l-2.3,1.49,1.28,3.01,2.67-.61c.42.53.91,1.02,1.46,1.44l-.56,2.68,3.03,1.22,1.45-2.32c.69.08,1.38.07,2.05-.02l1.49,2.3,3.01-1.28-.61-2.67c.53-.42,1.02-.91,1.44-1.46l2.68.56,1.22-3.03-2.32-1.45c.08-.69.07-1.38-.02-2.05l2.3-1.49-1.28-3.01-2.67.61c-.42-.53-.91-1.02-1.46-1.44l.56-2.68-3.03-1.23-1.45,2.32c-.69-.08-1.38-.07-2.05.02l-1.49-2.3-3.01,1.28.61,2.67c-.53.42-1.02.91-1.44,1.46l-2.68-.57-1.22,3.03,2.32,1.45c-.08.69-.07,1.38.02,2.05M9.03,11.36c.87-2.16,3.33-3.21,5.5-2.33,2.16.87,3.21,3.34,2.33,5.5-.87,2.16-3.34,3.21-5.5,2.33-2.16-.87-3.21-3.34-2.33-5.5"></path></g></g></svg>