<svg xmlns="http://www.w3.org/2000/svg" xmlns:xlink="http://www.w3.org/1999/xlink" id="Layer_2" viewBox="0 0 25.89 25.89"><defs><style>      .cls-1 {        fill: #121212;      }      .cls-2 {        fill: none;      }      .cls-3 {        clip-path: url(#clippath);      }    </style><clipPath id="clippath"><rect class="cls-2" width="25.89" height="25.89"></rect></clipPath></defs><g id="Layer_1-2" data-name="Layer_1"><g class="cls-3"><path class="cls-1" d="M12.95,25.89c7.14,0,12.95-5.81,12.95-12.95S20.08,0,12.95,0,0,5.81,0,12.95s5.81,12.95,12.95,12.95M21.45,6.9c1.26,1.78,1.93,3.87,1.93,6.04,0,5.76-4.68,10.44-10.44,10.44-2.18,0-4.27-.67-6.04-1.94l-.4-.29,14.67-14.67.29.4h0ZM12.95,2.51c2.18,0,4.27.67,6.04,1.94l.4.29-14.67,14.67-.29-.4c-1.26-1.78-1.93-3.87-1.93-6.04C2.5,7.2,7.18,2.51,12.94,2.51h0Z"></path></g></g></svg>